# Blender 3.2.2
# www.blender.org
mtllib House Base Model.mtl
o Base Building
v 0.679607 0.183511 -1.000000
v 0.679607 -0.183511 -1.000000
v 0.679607 0.183511 0.574567
v 0.679607 -0.183511 0.574567
v -0.679607 0.183511 -1.000000
v -0.679607 -0.183511 -1.000000
v -0.679607 0.183511 0.574567
v -0.679607 -0.183511 0.574567
v 0.218350 -0.183511 -1.000000
v -0.218350 -0.183511 -1.000000
v 0.218350 0.183511 0.574567
v -0.218350 0.183511 0.574567
v -0.218350 -0.183511 0.574567
v 0.218350 -0.183511 0.574567
v -0.218350 0.183511 -1.000000
v 0.218350 0.183511 -1.000000
v -0.679607 -0.183511 -0.669481
v 0.679607 0.183511 -0.669481
v -0.679607 0.183511 -0.669481
v 0.679607 -0.183511 -0.669481
v -0.218350 -0.183511 -0.669481
v 0.218350 -0.183511 -0.669481
v -0.679607 -0.183511 -0.118362
v 0.679607 0.183511 -0.118362
v -0.218350 -0.183511 -0.118362
v 0.218350 -0.183511 -0.118362
v -0.679607 0.183511 -0.118363
v 0.679607 -0.183511 -0.118363
v 0.218350 0.191932 -0.669481
v -0.218350 0.191932 -0.669481
v -0.218350 0.191932 -0.118362
v 0.218350 0.191932 -0.118362
v 0.218350 -0.132523 -0.119495
v 0.218350 -0.133452 -0.191845
v 0.218350 -0.082464 -0.192978
v 0.218350 -0.083393 -0.265327
v 0.218350 -0.032405 -0.266460
v 0.218350 -0.033334 -0.338810
v 0.218350 0.017654 -0.339942
v 0.218350 0.016725 -0.412292
v 0.218350 0.067713 -0.413425
v 0.218350 0.066784 -0.485774
v 0.218350 0.117772 -0.486907
v 0.218350 0.116843 -0.559257
v 0.218350 0.167831 -0.560390
v 0.218350 0.166902 -0.632739
v -0.218350 -0.132523 -0.119495
v -0.218350 -0.133452 -0.191845
v -0.218350 -0.082464 -0.192978
v -0.218350 -0.083393 -0.265327
v -0.218350 -0.032405 -0.266460
v -0.218350 -0.033334 -0.338810
v -0.218350 0.017654 -0.339942
v -0.218350 0.016725 -0.412292
v -0.218350 0.067713 -0.413425
v -0.218350 0.066784 -0.485774
v -0.218350 0.117772 -0.486907
v -0.218350 0.116843 -0.559257
v -0.218350 0.167831 -0.560390
v -0.218350 0.166902 -0.632739
v -0.385767 -0.183511 -0.669481
v -0.565965 -0.183511 -0.669481
v -0.556622 0.061241 -0.669481
v -0.374075 0.064540 -0.669481
v -0.218350 -0.183511 0.328243
v -0.218350 -0.183511 0.457581
v -0.218350 0.036875 0.461842
v -0.218350 0.010740 0.327618
v 0.218350 -0.183511 0.245375
v 0.218350 -0.183511 0.340284
v 0.218350 0.022918 0.221311
v 0.218350 0.075082 0.342142
v 0.679607 0.183511 -1.683075
v -0.679607 0.183511 -1.683075
v -0.679607 0.593357 -0.669481
v -0.679607 0.593357 -1.000000
v 0.679607 0.593357 -1.000000
v 0.679607 0.593357 -0.669481
v -0.679607 0.593357 -0.118363
v 0.679607 0.593357 -0.118362
v -0.218350 0.601778 -0.669481
v -0.218350 0.601778 -0.118362
v 0.218350 0.601778 -0.669481
v 0.218350 0.601778 -0.118362
v -0.679607 0.593357 -1.683075
v 0.679607 0.593357 -1.683075
v -0.364765 0.191932 -0.669481
v -0.364765 0.601778 -0.669481
v -0.364765 0.191932 -1.000000
v -0.364765 0.601778 -1.000000
v 0.346312 0.191932 -0.669481
v 0.346312 0.601778 -0.669481
v 0.346312 0.191932 -1.000000
v 0.346312 0.601778 -1.000000
v 0.346312 0.191932 -0.759958
v 0.346312 0.191932 -0.908221
v 0.346312 0.467502 -0.748620
v 0.346312 0.482974 -0.924188
v -0.079990 0.183511 -1.000000
v 0.138432 0.183511 -1.000000
v -0.059420 0.449280 -1.000000
v 0.117516 0.460273 -1.000000
v -0.364765 0.191932 -0.769010
v -0.364765 0.191932 -0.921108
v -0.364765 0.481739 -0.916782
v -0.364765 0.491707 -0.748060
vn -0.0000 -0.0000 -1.0000
vn -0.0000 -0.0000 1.0000
vn -1.0000 -0.0000 -0.0000
vn -0.0000 -1.0000 -0.0000
vn 1.0000 -0.0000 -0.0000
vn -0.0000 -0.8265 -0.5630
vn -0.0000 -0.0222 -0.9998
vn -0.0000 -0.9999 0.0128
vn 0.0091 0.9999 0.0061
vn 0.0183 0.9998 -0.0000
vn -0.0091 0.9999 0.0061
vn -0.0183 0.9998 -0.0000
vn -0.0000 1.0000 -0.0000
vn -0.0183 -0.9998 -0.0000
vn 0.0183 -0.9998 -0.0000
vt 0.000000 0.000000
vt 0.625000 0.500000
vt 0.375000 0.500000
vt 0.625000 0.750000
vt 0.375000 0.750000
vt 0.000000 0.000000
vt 0.625000 0.250000
vt 0.375000 0.250000
vt 0.125000 0.500000
vt 0.625000 1.000000
vt 0.625000 0.000000
vt 0.375000 1.000000
vt 0.125000 0.750000
vt 0.375000 0.000000
vt 0.375000 0.416667
vt 0.291667 0.500000
vt 0.375000 0.333333
vt 0.208333 0.500000
vt 0.625000 0.833333
vt 0.000000 0.000000
vt 0.625000 0.916667
vt 0.000000 0.000000
vt 0.208333 0.750000
vt 0.375000 0.916667
vt 0.000000 0.000000
vt 0.291667 0.750000
vt 0.375000 0.833333
vt 0.000000 0.000000
vt 0.625000 0.333333
vt 0.625000 0.416667
vt 0.375000 0.208685
vt 0.125000 0.541315
vt 0.000000 0.000000
vt 0.625000 0.541315
vt 0.000000 0.000000
vt 0.625000 0.208685
vt 0.375000 0.541315
vt 0.208333 0.541315
vt 0.000000 0.000000
vt 0.291667 0.541315
vt 0.375000 0.149277
vt 0.125000 0.600723
vt 0.625000 0.600723
vt 0.000000 0.000000
vt 0.208333 0.600723
vt 0.000000 0.000000
vt 0.291667 0.600723
vt 0.000000 0.000000
vt 0.625000 0.149277
vt 0.375000 0.600723
vt 0.000000 0.000000
vt 0.291667 0.541315
vt 0.000000 0.000000
vt 0.208333 0.541315
vt 0.000000 0.000000
vt 0.208333 0.600723
vt 0.000000 0.000000
vt 0.291667 0.600723
vt 0.291667 0.596763
vt 0.291667 0.592802
vt 0.291667 0.588842
vt 0.291667 0.584881
vt 0.291667 0.580920
vt 0.291667 0.576960
vt 0.291667 0.572999
vt 0.291667 0.569039
vt 0.291667 0.565078
vt 0.291667 0.561118
vt 0.291667 0.557157
vt 0.291667 0.553197
vt 0.291667 0.549236
vt 0.291667 0.545275
vt 0.208333 0.596763
vt 0.208333 0.592802
vt 0.208333 0.588842
vt 0.208333 0.584881
vt 0.208333 0.580920
vt 0.208333 0.576960
vt 0.208333 0.572999
vt 0.208333 0.569039
vt 0.208333 0.565078
vt 0.208333 0.561118
vt 0.208333 0.557157
vt 0.208333 0.553197
vt 0.208333 0.549236
vt 0.208333 0.545275
vt 0.178087 0.541315
vt 0.000000 0.000000
vt 0.145531 0.541315
vt 0.000000 0.000000
vt 0.000000 0.000000
vt 0.000000 0.000000
vt 0.208333 0.696935
vt 0.000000 0.000000
vt 0.208333 0.724798
vt 0.000000 0.000000
vt 0.000000 0.000000
vt 0.000000 0.000000
vt 0.291667 0.679083
vt 0.000000 0.000000
vt 0.291667 0.699529
vt 0.000000 0.000000
vt 0.000000 0.000000
vt 0.000000 0.000000
vt 0.000000 0.000000
vt 0.000000 0.000000
vt 0.000000 0.000000
vt 0.625000 0.208685
vt 0.000000 0.000000
vt 0.625000 0.250000
vt 0.000000 0.000000
vt 0.625000 0.500000
vt 0.625000 0.541315
vt 0.625000 0.149277
vt 0.625000 0.600723
vt 0.000000 0.000000
vt 0.208333 0.541315
vt 0.000000 0.000000
vt 0.208333 0.600723
vt 0.291667 0.541315
vt 0.291667 0.600723
vt 0.000000 0.000000
vt 0.625000 0.250000
vt 0.000000 0.000000
vt 0.625000 0.500000
vt 0.000000 0.000000
vt 0.208333 0.541315
vt 0.208333 0.541315
vt 0.208333 0.541315
vt 0.208333 0.541315
vt 0.291667 0.541315
vt 0.291667 0.541315
vt 0.291667 0.541315
vt 0.291667 0.541315
vt 0.291667 0.541315
vt 0.291667 0.541315
vt 0.291667 0.541315
vt 0.291667 0.541315
vt 0.349281 0.139713
vt 0.625000 0.360287
vt 0.268332 0.107333
vt 0.625000 0.392667
vt 0.625000 0.364071
vt 0.625000 0.413326
vt 0.208333 0.541315
vt 0.208333 0.541315
vt 0.208333 0.541315
vt 0.208333 0.541315
s 0
usemtl Material
f 6/8/1 5/7/1 15/29/1 10/17/1
f 13/24/2 12/21/2 7/10/2 8/12/2
f 17/31/3 19/36/3 5/7/3 6/8/3
f 26/47/4 28/50/4 4/5/4 14/26/4 70/101/4 69/99/4
f 28/50/5 24/43/5 3/4/5 4/5/5
f 9/15/1 16/30/1 1/2/1 2/3/1
f 10/17/1 15/29/1 16/30/1 9/15/1
f 23/42/4 25/45/4 65/93/4 66/95/4 13/23/4 8/13/4
f 25/45/4 26/47/4 69/99/4 70/101/4 14/26/4 13/23/4 66/95/4 65/93/4
f 4/5/2 3/4/2 11/19/2 14/27/2
f 14/27/2 11/19/2 12/21/2 13/24/2
f 10/18/4 9/16/4 22/40/4 21/38/4
f 6/9/4 10/18/4 21/38/4 61/87/4 62/89/4 17/32/4
f 2/3/5 1/2/5 18/34/5 20/37/5
f 9/16/4 2/3/4 20/37/4 22/40/4
f 23/41/3 27/49/3 19/36/3 17/31/3
f 8/14/3 7/11/3 27/49/3 23/41/3
f 22/40/3 26/47/3 32/58/3 29/52/3
f 17/32/4 62/89/4 61/87/4 21/38/4 25/45/4 23/42/4
f 20/37/5 18/34/5 24/43/5 28/50/5
f 22/40/4 20/37/4 28/50/4 26/47/4
f 60/86/6 30/54/6 29/52/6 46/72/6
f 21/38/2 22/40/2 29/52/2 30/54/2
f 25/45/5 21/38/5 30/54/5 31/56/5
f 25/45/7 47/73/7 33/59/7 26/47/7
f 47/73/8 48/74/8 34/60/8 33/59/8
f 48/74/7 49/75/7 35/61/7 34/60/7
f 49/75/8 50/76/8 36/62/8 35/61/8
f 50/76/7 51/77/7 37/63/7 36/62/7
f 51/77/8 52/78/8 38/64/8 37/63/8
f 52/78/7 53/79/7 39/65/7 38/64/7
f 53/79/8 54/80/8 40/66/8 39/65/8
f 54/80/7 55/81/7 41/67/7 40/66/7
f 55/81/8 56/82/8 42/68/8 41/67/8
f 56/82/7 57/83/7 43/69/7 42/68/7
f 57/83/8 58/84/8 44/70/8 43/69/8
f 58/84/7 59/85/7 45/71/7 44/70/7
f 59/85/8 60/86/8 46/72/8 45/71/8
f 24/44/2 32/57/2 26/48/2 28/51/2
f 26/48/5 32/57/5 11/20/5 14/28/5 70/102/5 72/104/5 71/103/5 69/100/5
f 31/55/3 25/46/3 65/94/3 68/98/3 67/97/3 66/96/3 13/25/3 12/22/3
f 30/53/1 21/39/1 61/88/1 64/92/1 63/91/1 62/90/1 17/33/1 19/35/1
f 24/44/9 32/57/9 11/20/9 3/4/9
f 5/7/3 19/36/3 75/108/3 76/110/3
f 24/44/10 18/34/10 29/52/10 32/57/10
f 18/34/3 24/43/3 80/115/3 78/113/3
f 12/22/11 31/55/11 27/49/11 7/11/11
f 79/114/12 82/119/12 81/117/12 75/107/12
f 76/110/13 77/112/13 86/125/13 85/123/13
f 27/49/2 31/55/2 82/118/2 79/114/2
f 24/44/1 32/57/1 84/122/1 80/116/1
f 73/105/1 74/106/1 85/124/1 86/126/1
f 31/56/5 30/54/5 81/117/5 82/119/5
f 74/106/3 5/6/3 76/109/3 85/124/3
f 18/34/5 1/2/5 77/112/5 78/113/5
f 32/58/5 29/52/5 83/120/5 84/121/5
f 1/1/5 73/105/5 86/126/5 77/111/5
f 19/36/3 27/49/3 79/114/3 75/108/3
f 75/108/13 78/113/13 77/112/13 76/110/13
f 80/116/14 84/122/14 83/120/14 78/113/14
f 1/2/4 18/34/4 19/35/4 5/7/4 99/140/4 100/142/4
f 73/105/4 1/1/4 100/141/4 99/139/4 5/7/4 74/106/4
f 5/7/2 99/140/2 101/143/2 102/144/2 100/142/2 1/2/2 77/112/2 76/110/2
f 30/54/15 31/56/15 27/49/15 19/36/15
f 81/117/1 30/54/1 87/127/1 88/128/1
f 88/128/5 87/127/5 103/145/5 106/148/5 105/147/5 104/146/5 89/129/5 90/130/5
f 83/120/2 29/52/2 91/131/2 92/132/2
f 92/132/5 91/131/5 95/135/5 97/137/5 98/138/5 96/136/5 93/133/5 94/134/5
o Door Vedals Room
v 0.346312 0.191932 -0.759958
v 0.346312 0.191932 -0.908221
v 0.346312 0.467502 -0.748620
v 0.346312 0.482974 -0.924188
vn 1.0000 -0.0000 -0.0000
vt 0.291667 0.541315
vt 0.291667 0.541315
vt 0.291667 0.541315
vt 0.291667 0.541315
s 0
usemtl Material
f 108/150/16 110/152/16 109/151/16 107/149/16
o Beach Painting 
v -0.680185 0.036836 -0.930386
v -0.680185 0.036836 -0.787780
v -0.680185 0.135132 -0.930386
v -0.680185 0.135132 -0.787780
v -0.657056 0.036836 -0.930386
v -0.657056 0.036836 -0.787780
v -0.657056 0.135132 -0.930386
v -0.657056 0.135132 -0.787780
vn -1.0000 -0.0000 -0.0000
vn -0.0000 1.0000 -0.0000
vn 1.0000 -0.0000 -0.0000
vn -0.0000 -1.0000 -0.0000
vn -0.0000 -0.0000 -1.0000
vn -0.0000 -0.0000 1.0000
vt 0.375000 0.000000
vt 0.375000 1.000000
vt 0.125000 0.750000
vt 0.625000 0.000000
vt 0.625000 1.000000
vt 0.875000 0.750000
vt 0.375000 0.250000
vt 0.125000 0.500000
vt 0.625000 0.250000
vt 0.875000 0.500000
vt 0.375000 0.750000
vt 0.625000 0.750000
vt 0.375000 0.500000
vt 0.625000 0.500000
s 0
f 111/153/17 112/156/17 114/161/17 113/159/17
f 113/159/18 114/161/18 118/166/18 117/165/18
f 117/165/19 118/166/19 116/164/19 115/163/19
f 115/163/20 116/164/20 112/157/20 111/154/20
f 113/160/21 117/165/21 115/163/21 111/155/21
f 118/166/22 114/162/22 112/158/22 116/164/22
o Harpoon
v -0.374352 0.185917 -1.646644
v -0.374352 0.315221 -1.646644
v -0.374352 0.185917 -1.670212
v -0.374352 0.315221 -1.670212
v -0.350783 0.185917 -1.646644
v -0.350783 0.315221 -1.646644
v -0.350783 0.185917 -1.670212
v -0.350783 0.315221 -1.670212
vn -1.0000 -0.0000 -0.0000
vn -0.0000 -0.0000 -1.0000
vn 1.0000 -0.0000 -0.0000
vn -0.0000 -0.0000 1.0000
vn -0.0000 -1.0000 -0.0000
vn -0.0000 1.0000 -0.0000
vt 0.375000 0.000000
vt 0.375000 1.000000
vt 0.125000 0.750000
vt 0.625000 0.000000
vt 0.625000 1.000000
vt 0.875000 0.750000
vt 0.375000 0.250000
vt 0.125000 0.500000
vt 0.625000 0.250000
vt 0.875000 0.500000
vt 0.375000 0.750000
vt 0.625000 0.750000
vt 0.375000 0.500000
vt 0.625000 0.500000
s 0
f 119/167/23 120/170/23 122/175/23 121/173/23
f 121/173/24 122/175/24 126/180/24 125/179/24
f 125/179/25 126/180/25 124/178/25 123/177/25
f 123/177/26 124/178/26 120/171/26 119/168/26
f 121/174/27 125/179/27 123/177/27 119/169/27
f 126/180/28 122/176/28 120/172/28 124/178/28
o Fridge and Lava Lamp
v -0.659554 -0.167165 0.179310
v -0.659554 -0.098822 0.179310
v -0.659554 -0.167165 0.055572
v -0.659554 -0.098822 0.055572
v -0.591210 -0.167165 0.179310
v -0.591210 -0.098822 0.179310
v -0.591210 -0.167165 0.055572
v -0.591210 -0.098822 0.055572
v -0.659554 -0.167165 0.117441
v -0.659554 -0.098822 0.117441
v -0.591210 -0.167165 0.117441
v -0.591210 -0.098822 0.117441
v -0.659554 0.019933 0.117441
v -0.659554 0.019933 0.055572
v -0.591210 0.019933 0.055572
v -0.591210 0.019933 0.117441
vn -1.0000 -0.0000 -0.0000
vn -0.0000 -0.0000 -1.0000
vn -0.0000 -0.0000 1.0000
vn -0.0000 -1.0000 -0.0000
vn -0.0000 1.0000 -0.0000
vn 1.0000 -0.0000 -0.0000
vt 0.375000 1.000000
vt 0.125000 0.750000
vt 0.375000 0.000000
vt 0.625000 1.000000
vt 0.625000 0.000000
vt 0.375000 0.250000
vt 0.125000 0.500000
vt 0.625000 0.250000
vt 0.375000 0.750000
vt 0.625000 0.750000
vt 0.375000 0.500000
vt 0.625000 0.500000
vt 0.125000 0.625000
vt 0.375000 0.125000
vt 0.625000 0.125000
vt 0.875000 0.625000
vt 0.375000 0.625000
vt 0.625000 0.625000
vt 0.000000 0.000000
vt 0.875000 0.625000
vt 0.625000 0.125000
vt 0.875000 0.500000
vt 0.625000 0.250000
vt 0.625000 0.500000
vt 0.625000 0.625000
s 0
f 135/194/29 136/195/29 130/188/29 129/186/29
f 129/186/30 130/188/30 134/192/30 133/191/30
f 131/189/31 132/190/31 128/184/31 127/181/31
f 135/193/32 137/197/32 131/189/32 127/182/32
f 134/192/30 130/188/30 140/203/30 141/204/30
f 129/187/32 133/191/32 137/197/32 135/193/32
f 127/183/29 128/185/29 136/195/29 135/194/29
f 141/204/33 140/202/33 139/200/33 142/205/33
f 136/196/31 138/198/31 142/205/31 139/200/31
f 138/198/34 134/192/34 141/204/34 142/205/34
f 130/188/29 136/195/29 139/201/29 140/203/29
f 132/190/34 131/189/34 137/197/34 138/199/34
f 134/192/34 138/198/34 137/197/34 133/191/34
f 132/190/33 138/199/33 136/196/33 128/185/33
o Trash can
v -0.416610 0.209356 -1.002324
v -0.416610 0.262190 -1.002324
v -0.416610 0.209356 -1.043264
v -0.416610 0.262190 -1.043264
v -0.375670 0.209356 -1.002324
v -0.375670 0.262190 -1.002324
v -0.375670 0.209356 -1.043264
v -0.375670 0.262190 -1.043264
vn -1.0000 -0.0000 -0.0000
vn -0.0000 -0.0000 -1.0000
vn 1.0000 -0.0000 -0.0000
vn -0.0000 -0.0000 1.0000
vn -0.0000 -1.0000 -0.0000
vn -0.0000 1.0000 -0.0000
vt 0.375000 0.000000
vt 0.375000 1.000000
vt 0.125000 0.750000
vt 0.625000 0.000000
vt 0.625000 1.000000
vt 0.875000 0.750000
vt 0.375000 0.250000
vt 0.125000 0.500000
vt 0.625000 0.250000
vt 0.875000 0.500000
vt 0.375000 0.750000
vt 0.625000 0.750000
vt 0.375000 0.500000
vt 0.625000 0.500000
s 0
f 143/206/35 144/209/35 146/214/35 145/212/35
f 145/212/36 146/214/36 150/219/36 149/218/36
f 149/218/37 150/219/37 148/217/37 147/216/37
f 147/216/38 148/217/38 144/210/38 143/207/38
f 145/213/39 149/218/39 147/216/39 143/208/39
f 150/219/40 146/215/40 144/211/40 148/217/40
o Robo Dog
v 0.430366 -0.143246 -0.179467
v 0.430366 -0.055738 -0.238884
v 0.430366 -0.165045 -0.213670
v 0.430366 -0.077536 -0.273088
v 0.471307 -0.143246 -0.179467
v 0.471307 -0.055738 -0.238884
v 0.471307 -0.165045 -0.213670
v 0.471307 -0.077536 -0.273088
vn -1.0000 -0.0000 -0.0000
vn -0.0000 -0.5617 -0.8273
vn 1.0000 -0.0000 -0.0000
vn -0.0000 0.5617 0.8273
vn -0.0000 -0.8433 0.5375
vn -0.0000 0.8433 -0.5375
vt 0.375000 0.000000
vt 0.375000 1.000000
vt 0.125000 0.750000
vt 0.625000 0.000000
vt 0.625000 1.000000
vt 0.875000 0.750000
vt 0.375000 0.250000
vt 0.125000 0.500000
vt 0.625000 0.250000
vt 0.875000 0.500000
vt 0.375000 0.750000
vt 0.625000 0.750000
vt 0.375000 0.500000
vt 0.625000 0.500000
s 0
f 151/220/41 152/223/41 154/228/41 153/226/41
f 153/226/42 154/228/42 158/233/42 157/232/42
f 157/232/43 158/233/43 156/231/43 155/230/43
f 155/230/44 156/231/44 152/224/44 151/221/44
f 153/227/45 157/232/45 155/230/45 151/222/45
f 158/233/46 154/229/46 152/225/46 156/231/46
o Veds PC
v 0.394106 0.209356 -0.449266
v 0.394106 0.262190 -0.449266
v 0.394106 0.209356 -0.490207
v 0.394106 0.262190 -0.490207
v 0.435046 0.209356 -0.449266
v 0.435046 0.262190 -0.449266
v 0.435046 0.209356 -0.490207
v 0.435046 0.262190 -0.490207
vn -1.0000 -0.0000 -0.0000
vn -0.0000 -0.0000 -1.0000
vn 1.0000 -0.0000 -0.0000
vn -0.0000 -0.0000 1.0000
vn -0.0000 -1.0000 -0.0000
vn -0.0000 1.0000 -0.0000
vt 0.375000 0.000000
vt 0.375000 1.000000
vt 0.125000 0.750000
vt 0.625000 0.000000
vt 0.625000 1.000000
vt 0.875000 0.750000
vt 0.375000 0.250000
vt 0.125000 0.500000
vt 0.625000 0.250000
vt 0.875000 0.500000
vt 0.375000 0.750000
vt 0.625000 0.750000
vt 0.375000 0.500000
vt 0.625000 0.500000
s 0
f 159/234/47 160/237/47 162/242/47 161/240/47
f 161/240/48 162/242/48 166/247/48 165/246/48
f 165/246/49 166/247/49 164/245/49 163/244/49
f 163/244/50 164/245/50 160/238/50 159/235/50
f 161/241/51 165/246/51 163/244/51 159/236/51
f 166/247/52 162/243/52 160/239/52 164/245/52
